<mxfile host="app.diagrams.net" modified="2022-05-03T20:18:19.632Z" agent="5.0 (Windows NT 10.0; Win64; x64) AppleWebKit/537.36 (KHTML, like Gecko) Chrome/100.0.4896.147 Safari/537.36" etag="kx4tJv1zjmjDZVDCuRqS" version="17.5.0" type="github">
  <diagram name="Page-1" id="b520641d-4fe3-3701-9064-5fc419738815">
    <mxGraphModel dx="1036" dy="558" grid="1" gridSize="10" guides="1" tooltips="1" connect="1" arrows="1" fold="1" page="1" pageScale="1" pageWidth="1100" pageHeight="850" background="none" math="0" shadow="0">
      <root>
        <mxCell id="0" />
        <mxCell id="1" parent="0" />
        <mxCell id="x1LRs1xTvR9VVA3YiVbE-13" style="edgeStyle=entityRelationEdgeStyle;rounded=0;orthogonalLoop=1;jettySize=auto;html=1;entryX=0.002;entryY=0.253;entryDx=0;entryDy=0;entryPerimeter=0;strokeColor=default;" edge="1" parent="1" source="21ea969265ad0168-10" target="x1LRs1xTvR9VVA3YiVbE-1">
          <mxGeometry relative="1" as="geometry" />
        </mxCell>
        <object label="1. Формирование записи" placeholders="1" id="21ea969265ad0168-10">
          <mxCell style="swimlane;html=1;fontStyle=0;childLayout=stackLayout;horizontal=1;startSize=60;fillColor=#e0e0e0;horizontalStack=0;resizeParent=1;resizeLast=0;collapsible=1;marginBottom=0;swimlaneFillColor=#ffffff;align=center;rounded=1;shadow=0;comic=0;labelBackgroundColor=none;strokeWidth=1;fontFamily=Verdana;fontSize=12;enumerate=0;arcSize=50;" parent="1" vertex="1">
            <mxGeometry x="260" y="160" width="200" height="90" as="geometry" />
          </mxCell>
        </object>
        <mxCell id="x1LRs1xTvR9VVA3YiVbE-12" style="edgeStyle=entityRelationEdgeStyle;rounded=0;orthogonalLoop=1;jettySize=auto;html=1;strokeColor=default;entryX=-0.002;entryY=0.748;entryDx=0;entryDy=0;entryPerimeter=0;" edge="1" parent="1" source="21ea969265ad0168-22" target="x1LRs1xTvR9VVA3YiVbE-1">
          <mxGeometry relative="1" as="geometry">
            <mxPoint x="510" y="246" as="targetPoint" />
          </mxGeometry>
        </mxCell>
        <mxCell id="21ea969265ad0168-22" value="2. Расчёт стоимости" style="swimlane;html=1;fontStyle=0;childLayout=stackLayout;horizontal=1;startSize=58;fillColor=#e0e0e0;horizontalStack=0;resizeParent=1;resizeLast=0;collapsible=1;marginBottom=0;swimlaneFillColor=#ffffff;align=center;rounded=1;shadow=0;comic=0;labelBackgroundColor=none;strokeWidth=1;fontFamily=Verdana;fontSize=12;arcSize=50;" parent="1" vertex="1">
          <mxGeometry x="260" y="352" width="200" height="90" as="geometry" />
        </mxCell>
        <mxCell id="21ea969265ad0168-38" style="edgeStyle=entityRelationEdgeStyle;html=1;labelBackgroundColor=none;startFill=0;startSize=8;endFill=1;endSize=8;fontFamily=Verdana;fontSize=12;exitX=1;exitY=0.75;exitDx=0;exitDy=0;rounded=0;" parent="1" source="x1LRs1xTvR9VVA3YiVbE-14" target="21ea969265ad0168-22" edge="1">
          <mxGeometry relative="1" as="geometry" />
        </mxCell>
        <mxCell id="x1LRs1xTvR9VVA3YiVbE-7" value="Тип и время работ" style="edgeLabel;html=1;align=center;verticalAlign=middle;resizable=0;points=[];" vertex="1" connectable="0" parent="21ea969265ad0168-38">
          <mxGeometry x="-0.2768" relative="1" as="geometry">
            <mxPoint x="9" y="27" as="offset" />
          </mxGeometry>
        </mxCell>
        <mxCell id="x1LRs1xTvR9VVA3YiVbE-1" value="1&lt;span style=&quot;white-space: pre&quot;&gt;	&lt;/span&gt;БД - Запись ремонта" style="html=1;dashed=0;whitespace=wrap;shape=mxgraph.dfd.dataStoreID;align=left;spacingLeft=3;points=[[0,0],[0.5,0],[1,0],[0,0.5],[1,0.5],[0,1],[0.5,1],[1,1]];" vertex="1" parent="1">
          <mxGeometry x="550" y="270" width="150" height="40" as="geometry" />
        </mxCell>
        <mxCell id="x1LRs1xTvR9VVA3YiVbE-11" style="orthogonalLoop=1;jettySize=auto;html=1;entryX=0;entryY=0.75;entryDx=0;entryDy=0;rounded=0;strokeColor=default;edgeStyle=entityRelationEdgeStyle;" edge="1" parent="1" source="x1LRs1xTvR9VVA3YiVbE-2" target="21ea969265ad0168-22">
          <mxGeometry relative="1" as="geometry" />
        </mxCell>
        <mxCell id="x1LRs1xTvR9VVA3YiVbE-2" value="2&lt;span style=&quot;white-space: pre&quot;&gt;	&lt;/span&gt;БД - Прейскурант" style="html=1;dashed=0;whitespace=wrap;shape=mxgraph.dfd.dataStoreID;align=left;spacingLeft=3;points=[[0,0],[0.5,0],[1,0],[0,0.5],[1,0.5],[0,1],[0.5,1],[1,1]];" vertex="1" parent="1">
          <mxGeometry x="10" y="360" width="150" height="36" as="geometry" />
        </mxCell>
        <mxCell id="x1LRs1xTvR9VVA3YiVbE-15" style="rounded=0;orthogonalLoop=1;jettySize=auto;html=1;entryX=0;entryY=0.25;entryDx=0;entryDy=0;strokeColor=default;elbow=vertical;edgeStyle=entityRelationEdgeStyle;exitX=1;exitY=0.5;exitDx=0;exitDy=0;" edge="1" parent="1" source="x1LRs1xTvR9VVA3YiVbE-14" target="21ea969265ad0168-10">
          <mxGeometry relative="1" as="geometry" />
        </mxCell>
        <mxCell id="x1LRs1xTvR9VVA3YiVbE-16" value="Дата, ID работника" style="edgeLabel;html=1;align=center;verticalAlign=middle;resizable=0;points=[];" vertex="1" connectable="0" parent="x1LRs1xTvR9VVA3YiVbE-15">
          <mxGeometry x="0.0068" relative="1" as="geometry">
            <mxPoint as="offset" />
          </mxGeometry>
        </mxCell>
        <mxCell id="x1LRs1xTvR9VVA3YiVbE-14" value="1. Работник" style="swimlane;fontStyle=0;childLayout=stackLayout;horizontal=1;startSize=64;fillColor=#ffffff;horizontalStack=0;resizeParent=1;resizeParentMax=0;resizeLast=0;collapsible=0;marginBottom=0;swimlaneFillColor=#ffffff;" vertex="1" parent="1">
          <mxGeometry x="10" y="166" width="120" height="80" as="geometry" />
        </mxCell>
      </root>
    </mxGraphModel>
  </diagram>
</mxfile>
